# xmcd
#
# Track frame offsets:
#	195
#	19755
#	37450
#	54272
#	69775
#	85717
#	109730
#	127162
#	145787
#
# Disc length: 2218 seconds
#
# Revision: 5
# Processed by: cddbd v1.5.2PL0 Copyright (c) Steve Scherf et al.
# Submitted via: EasyCDDAExtractor 15.3.0.1
#
DISCID=7708a809
DTITLE=Ricardo Montaner - Ricardo Montaner 2
DYEAR=1988
DGENRE=Latin
TTITLE0=Tan Enamorados
TTITLE1=A Donde Va El Amor
TTITLE2=La Bella Durmiente Y Yo
TTITLE3=Solo Con Un Beso
TTITLE4=Tu
TTITLE5=Tu Piano Y Mi Guitarra (A Duo Con Alejandro Lerner)
TTITLE6=Debo Cambiar De Amor
TTITLE7=Que Le Dire, Que Me Dira
TTITLE8=Haciendo Camino
EXTD=
EXTT0=
EXTT1=
EXTT2=
EXTT3=
EXTT4=
EXTT5=
EXTT6=
EXTT7=
EXTT8=
PLAYORDER=
